<svg id="my-svg" width="100%" xmlns="http://www.w3.org/2000/svg" xmlns:xlink="http://www.w3.org/1999/xlink" class="classDiagram" style="max-width: 689.25px; background-color: white;" viewBox="0 0 689.25 136" role="graphics-document document" aria-roledescription="class"><style>#my-svg{font-family:"trebuchet ms",verdana,arial,sans-serif;font-size:16px;fill:#333;}@keyframes edge-animation-frame{from{stroke-dashoffset:0;}}@keyframes dash{to{stroke-dashoffset:0;}}#my-svg .edge-animation-slow{stroke-dasharray:9,5!important;stroke-dashoffset:900;animation:dash 50s linear infinite;stroke-linecap:round;}#my-svg .edge-animation-fast{stroke-dasharray:9,5!important;stroke-dashoffset:900;animation:dash 20s linear infinite;stroke-linecap:round;}#my-svg .error-icon{fill:#552222;}#my-svg .error-text{fill:#552222;stroke:#552222;}#my-svg .edge-thickness-normal{stroke-width:1px;}#my-svg .edge-thickness-thick{stroke-width:3.5px;}#my-svg .edge-pattern-solid{stroke-dasharray:0;}#my-svg .edge-thickness-invisible{stroke-width:0;fill:none;}#my-svg .edge-pattern-dashed{stroke-dasharray:3;}#my-svg .edge-pattern-dotted{stroke-dasharray:2;}#my-svg .marker{fill:#333333;stroke:#333333;}#my-svg .marker.cross{stroke:#333333;}#my-svg svg{font-family:"trebuchet ms",verdana,arial,sans-serif;font-size:16px;}#my-svg p{margin:0;}#my-svg g.classGroup text{fill:#9370DB;stroke:none;font-family:"trebuchet ms",verdana,arial,sans-serif;font-size:10px;}#my-svg g.classGroup text .title{font-weight:bolder;}#my-svg .cluster-label text{fill:#333;}#my-svg .cluster-label span{color:#333;}#my-svg .cluster-label span p{background-color:transparent;}#my-svg .cluster rect{fill:#ffffde;stroke:#aaaa33;stroke-width:1px;}#my-svg .cluster text{fill:#333;}#my-svg .cluster span{color:#333;}#my-svg .nodeLabel,#my-svg .edgeLabel{color:#131300;}#my-svg .edgeLabel .label rect{fill:#ECECFF;}#my-svg .label text{fill:#131300;}#my-svg .labelBkg{background:#ECECFF;}#my-svg .edgeLabel .label span{background:#ECECFF;}#my-svg .classTitle{font-weight:bolder;}#my-svg .node rect,#my-svg .node circle,#my-svg .node ellipse,#my-svg .node polygon,#my-svg .node path{fill:#ECECFF;stroke:#9370DB;stroke-width:1px;}#my-svg .divider{stroke:#9370DB;stroke-width:1;}#my-svg g.clickable{cursor:pointer;}#my-svg g.classGroup rect{fill:#ECECFF;stroke:#9370DB;}#my-svg g.classGroup line{stroke:#9370DB;stroke-width:1;}#my-svg .classLabel .box{stroke:none;stroke-width:0;fill:#ECECFF;opacity:0.5;}#my-svg .classLabel .label{fill:#9370DB;font-size:10px;}#my-svg .relation{stroke:#333333;stroke-width:1;fill:none;}#my-svg .dashed-line{stroke-dasharray:3;}#my-svg .dotted-line{stroke-dasharray:1 2;}#my-svg #compositionStart,#my-svg .composition{fill:#333333!important;stroke:#333333!important;stroke-width:1;}#my-svg #compositionEnd,#my-svg .composition{fill:#333333!important;stroke:#333333!important;stroke-width:1;}#my-svg #dependencyStart,#my-svg .dependency{fill:#333333!important;stroke:#333333!important;stroke-width:1;}#my-svg #dependencyStart,#my-svg .dependency{fill:#333333!important;stroke:#333333!important;stroke-width:1;}#my-svg #extensionStart,#my-svg .extension{fill:transparent!important;stroke:#333333!important;stroke-width:1;}#my-svg #extensionEnd,#my-svg .extension{fill:transparent!important;stroke:#333333!important;stroke-width:1;}#my-svg #aggregationStart,#my-svg .aggregation{fill:transparent!important;stroke:#333333!important;stroke-width:1;}#my-svg #aggregationEnd,#my-svg .aggregation{fill:transparent!important;stroke:#333333!important;stroke-width:1;}#my-svg #lollipopStart,#my-svg .lollipop{fill:#ECECFF!important;stroke:#333333!important;stroke-width:1;}#my-svg #lollipopEnd,#my-svg .lollipop{fill:#ECECFF!important;stroke:#333333!important;stroke-width:1;}#my-svg .edgeTerminals{font-size:11px;line-height:initial;}#my-svg .classTitleText{text-anchor:middle;font-size:18px;fill:#333;}#my-svg .label-icon{display:inline-block;height:1em;overflow:visible;vertical-align:-0.125em;}#my-svg .node .label-icon path{fill:currentColor;stroke:revert;stroke-width:revert;}#my-svg :root{--mermaid-font-family:"trebuchet ms",verdana,arial,sans-serif;}</style><g><defs><marker id="my-svg_class-aggregationStart" class="marker aggregation class" refX="18" refY="7" markerWidth="190" markerHeight="240" orient="auto"><path d="M 18,7 L9,13 L1,7 L9,1 Z"/></marker></defs><defs><marker id="my-svg_class-aggregationEnd" class="marker aggregation class" refX="1" refY="7" markerWidth="20" markerHeight="28" orient="auto"><path d="M 18,7 L9,13 L1,7 L9,1 Z"/></marker></defs><defs><marker id="my-svg_class-extensionStart" class="marker extension class" refX="18" refY="7" markerWidth="190" markerHeight="240" orient="auto"><path d="M 1,7 L18,13 V 1 Z"/></marker></defs><defs><marker id="my-svg_class-extensionEnd" class="marker extension class" refX="1" refY="7" markerWidth="20" markerHeight="28" orient="auto"><path d="M 1,1 V 13 L18,7 Z"/></marker></defs><defs><marker id="my-svg_class-compositionStart" class="marker composition class" refX="18" refY="7" markerWidth="190" markerHeight="240" orient="auto"><path d="M 18,7 L9,13 L1,7 L9,1 Z"/></marker></defs><defs><marker id="my-svg_class-compositionEnd" class="marker composition class" refX="1" refY="7" markerWidth="20" markerHeight="28" orient="auto"><path d="M 18,7 L9,13 L1,7 L9,1 Z"/></marker></defs><defs><marker id="my-svg_class-dependencyStart" class="marker dependency class" refX="6" refY="7" markerWidth="190" markerHeight="240" orient="auto"><path d="M 5,7 L9,13 L1,7 L9,1 Z"/></marker></defs><defs><marker id="my-svg_class-dependencyEnd" class="marker dependency class" refX="13" refY="7" markerWidth="20" markerHeight="28" orient="auto"><path d="M 18,7 L9,13 L14,7 L9,1 Z"/></marker></defs><defs><marker id="my-svg_class-lollipopStart" class="marker lollipop class" refX="13" refY="7" markerWidth="190" markerHeight="240" orient="auto"><circle fill="transparent" cx="7" cy="7" r="6"/></marker></defs><defs><marker id="my-svg_class-lollipopEnd" class="marker lollipop class" refX="1" refY="7" markerWidth="190" markerHeight="240" orient="auto"><circle fill="transparent" cx="7" cy="7" r="6"/></marker></defs><g class="root"><g class="clusters"/><g class="edgePaths"/><g class="edgeLabels"/><g class="nodes"><g class="node default" id="classId-Document-0" transform="translate(57.859375, 68)"><g class="basic label-container"><path d="M-49.859375 -42 L49.859375 -42 L49.859375 42 L-49.859375 42" stroke="none" stroke-width="0" fill="#ECECFF" style=""/><path d="M-49.859375 -42 C-26.292857571733734 -42, -2.7263401434674677 -42, 49.859375 -42 M-49.859375 -42 C-21.265938133177485 -42, 7.3274987336450295 -42, 49.859375 -42 M49.859375 -42 C49.859375 -20.673254812161694, 49.859375 0.6534903756766113, 49.859375 42 M49.859375 -42 C49.859375 -16.97521965734318, 49.859375 8.049560685313637, 49.859375 42 M49.859375 42 C21.039794867018813 42, -7.779785265962374 42, -49.859375 42 M49.859375 42 C11.888262666838393 42, -26.082849666323213 42, -49.859375 42 M-49.859375 42 C-49.859375 8.637001477328795, -49.859375 -24.72599704534241, -49.859375 -42 M-49.859375 42 C-49.859375 21.848122370982388, -49.859375 1.696244741964776, -49.859375 -42" stroke="#9370DB" stroke-width="1.3" fill="none" stroke-dasharray="0 0" style=""/></g><g class="annotation-group text" transform="translate(0, -18)"/><g class="label-group text" transform="translate(-37.859375, -18)"><g class="label" style="font-weight: bolder" transform="translate(0,-12)"><foreignObject width="75.71875" height="24"><div xmlns="http://www.w3.org/1999/xhtml" style="display: table-cell; white-space: nowrap; line-height: 1.5; max-width: 117px; text-align: center;"><span class="nodeLabel markdown-node-label" style=""><p>Document</p></span></div></foreignObject></g></g><g class="members-group text" transform="translate(-37.859375, 30)"/><g class="methods-group text" transform="translate(-37.859375, 60)"/><g class="divider" style=""><path d="M-49.859375 6 C-29.137305058628066 6, -8.415235117256131 6, 49.859375 6 M-49.859375 6 C-23.90758996406986 6, 2.0441950718602797 6, 49.859375 6" stroke="#9370DB" stroke-width="1.3" fill="none" stroke-dasharray="0 0" style=""/></g><g class="divider" style=""><path d="M-49.859375 24 C-29.465994999171773 24, -9.072614998343546 24, 49.859375 24 M-49.859375 24 C-27.548867824590992 24, -5.238360649181985 24, 49.859375 24" stroke="#9370DB" stroke-width="1.3" fill="none" stroke-dasharray="0 0" style=""/></g></g><g class="node default" id="classId-CreateDocument-1" transform="translate(232.515625, 68)"><g class="basic label-container"><path d="M-74.796875 -42 L74.796875 -42 L74.796875 42 L-74.796875 42" stroke="none" stroke-width="0" fill="#ECECFF" style=""/><path d="M-74.796875 -42 C-15.124518726172347 -42, 44.547837547655305 -42, 74.796875 -42 M-74.796875 -42 C-36.16751530379852 -42, 2.4618443924029663 -42, 74.796875 -42 M74.796875 -42 C74.796875 -19.174110536103704, 74.796875 3.6517789277925914, 74.796875 42 M74.796875 -42 C74.796875 -16.425350318545835, 74.796875 9.14929936290833, 74.796875 42 M74.796875 42 C33.6907686913507 42, -7.415337617298604 42, -74.796875 42 M74.796875 42 C19.726489103276947 42, -35.343896793446106 42, -74.796875 42 M-74.796875 42 C-74.796875 23.79324923877269, -74.796875 5.586498477545383, -74.796875 -42 M-74.796875 42 C-74.796875 15.353544935330682, -74.796875 -11.292910129338637, -74.796875 -42" stroke="#9370DB" stroke-width="1.3" fill="none" stroke-dasharray="0 0" style=""/></g><g class="annotation-group text" transform="translate(0, -18)"/><g class="label-group text" transform="translate(-62.796875, -18)"><g class="label" style="font-weight: bolder" transform="translate(0,-12)"><foreignObject width="125.59375" height="24"><div xmlns="http://www.w3.org/1999/xhtml" style="display: table-cell; white-space: nowrap; line-height: 1.5; max-width: 158px; text-align: center;"><span class="nodeLabel markdown-node-label" style=""><p>CreateDocument</p></span></div></foreignObject></g></g><g class="members-group text" transform="translate(-62.796875, 30)"/><g class="methods-group text" transform="translate(-62.796875, 60)"/><g class="divider" style=""><path d="M-74.796875 6 C-34.42709879895043 6, 5.942677402099136 6, 74.796875 6 M-74.796875 6 C-40.2710769423288 6, -5.745278884657594 6, 74.796875 6" stroke="#9370DB" stroke-width="1.3" fill="none" stroke-dasharray="0 0" style=""/></g><g class="divider" style=""><path d="M-74.796875 24 C-36.85005275493804 24, 1.0967694901239184 24, 74.796875 24 M-74.796875 24 C-15.837011691970211 24, 43.12285161605958 24, 74.796875 24" stroke="#9370DB" stroke-width="1.3" fill="none" stroke-dasharray="0 0" style=""/></g></g><g class="node default" id="classId-UpdateDocument-2" transform="translate(433.9296875, 68)"><g class="basic label-container"><path d="M-76.6171875 -42 L76.6171875 -42 L76.6171875 42 L-76.6171875 42" stroke="none" stroke-width="0" fill="#ECECFF" style=""/><path d="M-76.6171875 -42 C-42.370315958494906 -42, -8.123444416989813 -42, 76.6171875 -42 M-76.6171875 -42 C-23.888420727895017 -42, 28.840346044209966 -42, 76.6171875 -42 M76.6171875 -42 C76.6171875 -9.293653945739912, 76.6171875 23.412692108520176, 76.6171875 42 M76.6171875 -42 C76.6171875 -19.297780222798814, 76.6171875 3.404439554402373, 76.6171875 42 M76.6171875 42 C37.67523255147804 42, -1.266722397043921 42, -76.6171875 42 M76.6171875 42 C23.79990319699568 42, -29.017381106008642 42, -76.6171875 42 M-76.6171875 42 C-76.6171875 14.89570721172701, -76.6171875 -12.208585576545978, -76.6171875 -42 M-76.6171875 42 C-76.6171875 16.30903102234378, -76.6171875 -9.381937955312438, -76.6171875 -42" stroke="#9370DB" stroke-width="1.3" fill="none" stroke-dasharray="0 0" style=""/></g><g class="annotation-group text" transform="translate(0, -18)"/><g class="label-group text" transform="translate(-64.6171875, -18)"><g class="label" style="font-weight: bolder" transform="translate(0,-12)"><foreignObject width="129.234375" height="24"><div xmlns="http://www.w3.org/1999/xhtml" style="display: table-cell; white-space: nowrap; line-height: 1.5; max-width: 163px; text-align: center;"><span class="nodeLabel markdown-node-label" style=""><p>UpdateDocument</p></span></div></foreignObject></g></g><g class="members-group text" transform="translate(-64.6171875, 30)"/><g class="methods-group text" transform="translate(-64.6171875, 60)"/><g class="divider" style=""><path d="M-76.6171875 6 C-17.45277991621178 6, 41.71162766757644 6, 76.6171875 6 M-76.6171875 6 C-27.030219494686136 6, 22.556748510627727 6, 76.6171875 6" stroke="#9370DB" stroke-width="1.3" fill="none" stroke-dasharray="0 0" style=""/></g><g class="divider" style=""><path d="M-76.6171875 24 C-32.60787234494175 24, 11.401442810116507 24, 76.6171875 24 M-76.6171875 24 C-34.35937725370297 24, 7.898432992594067 24, 76.6171875 24" stroke="#9370DB" stroke-width="1.3" fill="none" stroke-dasharray="0 0" style=""/></g></g><g class="node default" id="classId-DB-3" transform="translate(620.8984375, 68)"><g class="basic label-container"><path d="M-60.3515625 -60 L60.3515625 -60 L60.3515625 60 L-60.3515625 60" stroke="none" stroke-width="0" fill="#ECECFF" style=""/><path d="M-60.3515625 -60 C-18.075566244353816 -60, 24.20043001129237 -60, 60.3515625 -60 M-60.3515625 -60 C-16.902201663675186 -60, 26.54715917264963 -60, 60.3515625 -60 M60.3515625 -60 C60.3515625 -18.15925132973458, 60.3515625 23.68149734053084, 60.3515625 60 M60.3515625 -60 C60.3515625 -20.544626541229917, 60.3515625 18.910746917540166, 60.3515625 60 M60.3515625 60 C16.15137918428914 60, -28.04880413142172 60, -60.3515625 60 M60.3515625 60 C29.006362491052258 60, -2.3388375178954846 60, -60.3515625 60 M-60.3515625 60 C-60.3515625 32.410825205621066, -60.3515625 4.821650411242125, -60.3515625 -60 M-60.3515625 60 C-60.3515625 23.656560233758853, -60.3515625 -12.686879532482294, -60.3515625 -60" stroke="#9370DB" stroke-width="1.3" fill="none" stroke-dasharray="0 0" style=""/></g><g class="annotation-group text" transform="translate(0, -36)"/><g class="label-group text" transform="translate(-9.90625, -36)"><g class="label" style="font-weight: bolder" transform="translate(0,-12)"><foreignObject width="19.8125" height="24"><div xmlns="http://www.w3.org/1999/xhtml" style="display: table-cell; white-space: nowrap; line-height: 1.5; max-width: 72px; text-align: center;"><span class="nodeLabel markdown-node-label" style=""><p>DB</p></span></div></foreignObject></g></g><g class="members-group text" transform="translate(-48.3515625, 12)"><g class="label" style="" transform="translate(0,-12)"><foreignObject width="86.796875" height="24"><div xmlns="http://www.w3.org/1999/xhtml" style="display: table-cell; white-space: nowrap; line-height: 1.5; max-width: 129px; text-align: center;"><span class="nodeLabel markdown-node-label" style=""><p>+created_at</p></span></div></foreignObject></g></g><g class="methods-group text" transform="translate(-48.3515625, 60)"/><g class="divider" style=""><path d="M-60.3515625 -12 C-30.728703983833007 -12, -1.1058454676660148 -12, 60.3515625 -12 M-60.3515625 -12 C-35.70487241702112 -12, -11.05818233404225 -12, 60.3515625 -12" stroke="#9370DB" stroke-width="1.3" fill="none" stroke-dasharray="0 0" style=""/></g><g class="divider" style=""><path d="M-60.3515625 36 C-34.043897715754845 36, -7.73623293150969 36, 60.3515625 36 M-60.3515625 36 C-28.269938859013337 36, 3.8116847819733266 36, 60.3515625 36" stroke="#9370DB" stroke-width="1.3" fill="none" stroke-dasharray="0 0" style=""/></g></g></g></g></g></svg>